<?xml version="1.0" standalone="no"?>
<!DOCTYPE svg PUBLIC "-//W3C//DTD SVG 20010904//EN"
 "http://www.w3.org/TR/2001/REC-SVG-20010904/DTD/svg10.dtd">
<svg version="1.0" xmlns="http://www.w3.org/2000/svg"
 width="500.000000pt" height="500.000000pt" viewBox="0 0 500.000000 500.000000"
 preserveAspectRatio="xMidYMid meet">
<metadata>
Created by potrace 1.11, written by Peter Selinger 2001-2013
</metadata>
<g transform="translate(0.000000,500.000000) scale(0.100000,-0.100000)"
fill="#000000" stroke="none">
<path d="M10 2500 l0 -2500 2495 0 2495 0 0 2500 0 2500 -2495 0 -2495 0 0
-2500z m2985 1356 c338 -38 637 -105 895 -199 l85 -32 -60 -6 c-128 -14 -404
-10 -469 7 -86 23 -363 14 -491 -15 -110 -26 -228 -64 -315 -104 l-65 -29 35
-26 c19 -15 66 -55 105 -88 64 -56 73 -60 90 -48 17 13 17 14 2 14 -10 0 -52
29 -94 65 -42 36 -80 65 -85 65 -4 0 -8 4 -8 9 0 9 107 53 205 84 41 13 192
20 885 37 791 19 1047 23 990 13 -14 -2 -317 -47 -675 -98 -780 -114 -907
-135 -1008 -169 -62 -21 -170 -68 -185 -81 -1 -1 22 -40 51 -87 137 -218 150
-451 39 -675 -19 -40 -39 -73 -43 -73 -3 0 -9 19 -12 43 -5 31 0 57 18 103 38
94 48 159 42 259 -8 135 -58 268 -141 369 l-21 26 -66 -49 c-52 -38 -76 -50
-113 -52 -25 -2 -46 -1 -46 3 0 8 135 118 168 137 15 9 13 14 -23 46 -22 20
-71 58 -109 85 l-68 49 -57 -38 c-63 -43 -151 -119 -151 -130 0 -4 28 -28 63
-53 34 -25 73 -58 86 -72 l24 -26 -45 0 c-37 0 -54 7 -104 45 -32 24 -65 45
-71 45 -16 0 -67 -69 -103 -140 -83 -163 -89 -355 -17 -513 21 -46 22 -57 12
-97 l-11 -45 -28 48 c-53 90 -79 182 -84 302 -6 157 28 279 113 409 25 38 45
73 45 78 0 10 -90 51 -182 83 -109 38 -225 58 -982 167 -519 74 -702 104 -660
106 32 2 446 -6 919 -18 699 -17 870 -24 915 -36 73 -21 200 -74 200 -84 0 -4
-17 -19 -38 -33 -21 -15 -55 -45 -77 -67 -25 -25 -48 -40 -65 -40 l-25 -1 25
-13 c23 -13 28 -11 88 45 35 33 82 72 104 86 l40 27 -56 28 c-74 37 -213 83
-328 109 -131 29 -399 37 -484 15 -66 -17 -292 -22 -453 -9 l-84 6 74 29 c261
102 668 186 1054 218 160 13 664 4 830 -14z m-2082 -361 c56 -8 118 -17 137
-21 l35 -6 -50 -25 -49 -26 29 -24 c51 -42 225 -121 345 -157 141 -42 323 -79
495 -100 72 -9 149 -19 172 -22 41 -5 42 -5 31 -35 -12 -34 -9 -34 -158 -14
-419 55 -754 159 -917 284 l-53 40 -89 -60 c-214 -143 -321 -303 -322 -480 -1
-370 505 -691 1300 -825 137 -23 164 -25 223 -15 92 15 98 15 98 -11 0 -13 7
-47 15 -77 l14 -53 -82 6 c-511 43 -1016 188 -1340 385 -317 193 -479 444
-439 684 31 187 183 375 422 525 36 22 68 41 73 41 4 1 53 -6 110 -14z m3414
-57 c252 -168 382 -362 382 -568 0 -154 -58 -278 -199 -421 -232 -237 -665
-425 -1200 -523 -142 -26 -447 -62 -455 -54 -5 5 21 137 29 145 3 3 38 1 79
-6 54 -9 92 -9 147 -1 888 132 1451 499 1382 902 -26 149 -140 298 -321 421
l-84 56 -62 -45 c-190 -135 -558 -242 -992 -289 -60 -7 -63 -6 -74 19 -7 14
-10 28 -7 31 3 3 63 12 134 20 363 42 678 126 845 225 97 58 100 64 42 93
l-48 25 50 7 c28 4 84 13 125 20 41 7 85 13 97 14 12 0 70 -31 130 -71z
m-1753 -72 c33 -24 72 -56 85 -70 l25 -26 -25 -17 c-13 -10 -52 -42 -87 -71
-71 -60 -52 -63 -161 26 -29 23 -60 47 -69 52 -15 9 -12 15 23 46 37 33 135
104 144 104 2 0 31 -20 65 -44z m-253 -226 l24 -19 -27 -1 c-16 0 -28 2 -28 4
0 2 -3 11 -6 20 -8 22 9 20 37 -4z m409 0 c0 -16 -7 -20 -31 -20 l-31 0 23 20
c31 25 39 25 39 0z m110 -68 c6 -14 8 -27 5 -31 -9 -9 -526 -14 -612 -6 l-73
7 14 27 14 27 320 0 320 0 12 -24z m-481 -122 c-24 -33 -44 -59 -45 -57 -1 1
-5 28 -8 60 l-7 57 51 0 51 0 -42 -60z m253 21 c117 -137 217 -379 247 -596
48 -341 -63 -720 -286 -977 -38 -44 -42 -53 -48 -124 -13 -132 -20 -138 -32
-27 l-11 102 -57 70 c-159 196 -248 418 -276 681 -30 290 62 620 241 856 l41
54 74 0 c73 0 74 0 107 -39z m98 2 c0 -21 -3 -48 -6 -60 -6 -21 -10 -18 -45
32 -22 31 -39 58 -39 60 0 3 20 5 45 5 l45 0 0 -37z"/>
<path d="M2215 3720 c-55 -4 -134 -11 -175 -15 l-75 -8 100 -22 c132 -28 218
-57 343 -112 l103 -46 97 46 c113 52 221 88 347 113 l90 18 -50 8 c-167 25
-558 34 -780 18z m307 -172 c-17 -8 -26 -8 -34 0 -9 9 -4 12 23 11 32 0 33 -1
11 -11z"/>
<path d="M2467 2948 c-284 -355 -338 -857 -135 -1263 44 -87 119 -205 130
-205 4 0 5 12 3 28 -5 27 -55 486 -55 503 0 5 21 19 48 32 l47 24 50 -23 51
-23 -28 -253 c-16 -139 -27 -262 -26 -273 2 -15 15 -2 49 50 137 206 202 420
202 665 0 203 -44 382 -137 557 -48 89 -141 223 -156 223 -5 0 -24 -19 -43
-42z m90 -46 c23 -32 60 -92 82 -133 l41 -75 -23 -208 -23 -208 -39 -30 c-83
-62 -85 -62 -151 -16 -33 22 -60 41 -61 42 -2 2 -13 96 -26 209 l-23 207 24
48 c44 88 136 222 151 222 3 0 25 -26 48 -58z m-250 -588 c32 -30 89 -76 127
-101 l69 -46 35 19 c42 22 166 119 201 158 27 29 41 21 41 -24 0 -30 -43 -74
-139 -144 l-63 -46 54 -24 c30 -13 73 -30 96 -37 36 -10 42 -16 42 -40 0 -15
-4 -30 -9 -33 -11 -7 -65 12 -177 60 l-82 35 -49 -24 c-57 -29 -194 -79 -200
-73 -2 2 -5 16 -6 30 -2 26 4 30 91 63 51 20 91 39 90 43 -2 4 -39 35 -83 68
-106 79 -113 89 -108 135 3 20 7 37 8 37 2 0 30 -25 62 -56z m82 -350 c2 -2 6
-26 9 -54 l5 -50 -61 0 -60 0 -11 44 c-18 73 -19 73 52 68 34 -2 64 -6 66 -8z
m357 -49 l-12 -50 -63 -3 -64 -3 7 32 c3 17 6 42 6 55 0 21 5 23 63 26 34 2
65 1 69 -2 4 -3 1 -28 -6 -55z"/>
</g>
</svg>
